PathFileType	4	(X/Y/Z)	Walk5.trc
DataRate	CameraRate	NumFrames	NumMarkers	Units	OrigDataRate	OrigDataStartFrame	OrigNumFrames
200.000000	200.000000	8	59	mm	200.000000	785	826
Frame#	Times		RCAR		LFHD		RFHD		RWRU		LMT1		RACR1		LTH3		RASI		LTB1		RUA1		RFA1		LACR1		LLFC		LUA1		LTB4		LTB3		LToe		RTH2		STRN		LTH4		RBHD		LTH2		LElbow		RTH4		RLFC		CLAV		LASI		RTH3		LWRU		LFA1		RBack		C7		RTH1		RMT1		RMT5		LPSI		LCAR		RCAL		RToe		RLMAL		LTH1		LBHD		RPSI		RTB2		RTB4		RTB1		RElbow		RTB3		RMMAL		LTB2		LMT5		LWRR		RWRR		RElbowM		LLMAL		LMMAL		T10		LCAL		LElbowM
			X1	Y1	Z1	X2	Y2	Z2	X3	Y3	Z3	X4	Y4	Z4	X5	Y5	Z5	X6	Y6	Z6	X7	Y7	Z7	X8	Y8	Z8	X9	Y9	Z9	X10	Y10	Z10	X11	Y11	Z11	X12	Y12	Z12	X13	Y13	Z13	X14	Y14	Z14	X15	Y15	Z15	X16	Y16	Z16	X17	Y17	Z17	X18	Y18	Z18	X19	Y19	Z19	X20	Y20	Z20	X21	Y21	Z21	X22	Y22	Z22	X23	Y23	Z23	X24	Y24	Z24	X25	Y25	Z25	X26	Y26	Z26	X27	Y27	Z27	X28	Y28	Z28	X29	Y29	Z29	X30	Y30	Z30	X31	Y31	Z31	X32	Y32	Z32	X33	Y33	Z33	X34	Y34	Z34	X35	Y35	Z35	X36	Y36	Z36	X37	Y37	Z37	X38	Y38	Z38	X39	Y39	Z39	X40	Y40	Z40	X41	Y41	Z41	X42	Y42	Z42	X43	Y43	Z43	X44	Y44	Z44	X45	Y45	Z45	X46	Y46	Z46	X47	Y47	Z47	X48	Y48	Z48	X49	Y49	Z49	X50	Y50	Z50	X51	Y51	Z51	X52	Y52	Z52	X53	Y53	Z53	X54	Y54	Z54	X55	Y55	Z55	X56	Y56	Z56	X57	Y57	Z57	X58	Y58	Z58	X59	Y59	Z59

785	3.925	555.85	789.66	303.52	763.65	1578.7	-59.359	762.96	1574.5	38.69	525.23	850.48	323.48	689.56	36.062	-31.67	618.8	1385.3	156.62	638.35	560.16	-159.95	694.88	970.94	176.62	618.93	335.76	-43.774	564.14	1251	247.78	556.85	954.82	295.94	642.25	1358.5	-201.21	604.54	488.65	-148.75	623.83	1210.3	-275.63	605.68	250.96	-49.274	600.8	165.74	-52.379	733.15	31.245	-33.522	734.91	667.73	211.36	767.33	1226	-3.4794	649.19	642.4	-188.03	592.46	1574.2	46.386	699.6	645.21	-156.31	570.14	1067.6	-309.19	677.41	653.13	222.03	712.52	482.75	206.74	704.91	1342.6	-18.998	711.5	959.81	-179.15	698.2	568.86	212.6	622.2	831.3	-361.89	635.07	949.5	-333.57	482.83	1323	74.803	545.63	1420.7	-17.721	666.44	736.61	235.47	673.48	50.701	112.95	643.69	47.94	193.64	472.61	986.51	-107.53	664.79	789.06	-362.72	493.73	106.53	115.84	711.03	38.556	129.67	547.61	125.47	170.87	663.91	721.05	-216.48	611.55	1568.2	-87.923	452.82	983.51	25.826	666.83	303.42	192.69	688.11	290.6	134.32	738.99	360.78	138.5	506.56	1090	282.57	647.53	216.2	132.07	583.74	127.32	92.53	609.11	254.68	-111.97	673.05	26.293	-122.38	673.9	835.12	-307.81	568.05	849.58	261.66	475.38	1078.4	195.28	555.68	69.839	-112.94	564.87	74.529	-28.209	487.48	1090.3	-22.493	498.81	30.552	-74.296	555.01	1032.7	-208.4
786	3.93	558.94	789.46	303.51	767.98	1578.3	-59.404	767.18	1574.1	38.66	528.23	850.26	323.15	689.59	36.089	-31.727	622.98	1384.9	156.38	640.21	559.95	-159.81	699.05	970.87	176.67	619.54	335.69	-43.88	567.92	1250.7	247.44	560.03	954.54	295.71	647.02	1358.2	-201.24	605.55	488.62	-148.79	628.75	1210.2	-275.99	606.19	250.9	-49.378	601.13	165.71	-52.503	733.25	31.206	-33.605	740.43	668.14	210.88	771.45	1225.2	-2.9289	652.56	642.03	-187.67	596.68	1573.8	46.169	702.56	644.19	-155.23	576.02	1067.2	-309.79	683.06	653.18	221.73	719.27	482.76	206.11	709.15	1342.1	-19.021	715.33	959.05	-179.35	704.37	569.01	212.13	631.34	831.65	-362.36	642.51	949.95	-333.96	486.99	1322.8	74.335	549.87	1420.4	-18.084	671.52	736.57	235.22	690.84	49.801	114.24	660.86	46.677	194.81	476.54	986.25	-107.64	674.45	789.92	-362.97	509.56	100.75	116.29	728.64	38.725	131.11	562.81	121.34	171.37	668.75	720.48	-215.9	615.92	1567.9	-88.126	456.75	983.39	25.665	677.58	302.42	192.52	699.08	290	134.17	748.1	361.38	138.04	510.02	1089.8	282.06	660.44	214.55	132.2	599.1	123.82	93.115	609.44	254.68	-112.12	673.07	26.273	-122.46	682.56	835.99	-307.96	571.36	849.21	261.65	479.02	1078.2	194.71	555.72	69.869	-112.9	564.99	74.58	-28.135	491.45	1090.1	-22.816	498.84	30.602	-74.212	560.9	1032.2	-209.11
787	3.935	562.12	789.22	303.56	772.31	1577.9	-59.425	771.41	1573.7	38.655	531.28	850	322.85	689.62	36.115	-31.782	627.16	1384.4	156.17	642.09	559.76	-159.7	703.26	970.77	176.73	620.21	335.61	-43.959	571.72	1250.3	247.14	563.25	954.22	295.53	651.82	1357.9	-201.24	606.65	488.6	-148.82	633.72	1210	-276.34	606.75	250.85	-49.471	601.46	165.66	-52.602	733.35	31.165	-33.684	745.87	668.47	210.39	775.56	1224.5	-2.3678	655.92	641.67	-187.33	600.91	1573.4	45.981	705.51	643.16	-154.22	581.9	1066.8	-310.36	688.64	653.15	221.44	725.87	482.71	205.45	713.41	1341.5	-19.006	719.15	958.3	-179.55	710.42	569.09	211.62	640.46	832.03	-362.79	649.93	950.4	-334.33	491.15	1322.5	73.89	554.15	1420.1	-18.435	676.57	736.47	234.99	708.32	49.024	115.6	678.15	45.532	196.04	480.46	985.96	-107.7	684.07	790.79	-363.17	525.63	95.038	116.84	746.32	39.038	132.61	578.22	117.27	171.95	673.55	719.9	-215.32	620.29	1567.5	-88.3	460.67	983.22	25.55	688.35	301.42	192.33	710.04	289.4	134.01	757.13	361.99	137.55	513.5	1089.5	281.6	673.43	212.94	132.35	614.63	120.39	93.771	609.83	254.67	-112.25	673.1	26.25	-122.54	691.16	836.86	-308.04	574.72	848.81	261.67	482.65	1078	194.18	555.76	69.901	-112.86	565.11	74.619	-28.078	495.42	1089.9	-23.097	498.86	30.661	-74.133	566.81	1031.6	-209.79
788	3.94	565.36	788.96	303.65	776.65	1577.5	-59.421	775.64	1573.2	38.673	534.39	849.7	322.59	689.64	36.14	-31.834	631.35	1384	156	643.99	559.58	-159.62	707.49	970.62	176.79	620.95	335.52	-44.011	575.55	1249.9	246.86	566.51	953.87	295.39	656.63	1357.6	-201.22	607.84	488.59	-148.83	638.73	1209.8	-276.68	607.35	250.79	-49.546	601.81	165.6	-52.676	733.46	31.123	-33.759	751.24	668.71	209.87	779.66	1223.7	-1.8015	659.25	641.32	-187.02	605.14	1572.9	45.824	708.47	642.15	-153.3	587.76	1066.3	-310.92	694.13	653.07	221.14	732.31	482.58	204.75	717.67	1340.9	-18.952	722.95	957.57	-179.72	716.35	569.1	211.08	649.55	832.41	-363.16	657.33	950.83	-334.67	495.31	1322.3	73.476	558.46	1419.7	-18.768	681.59	736.31	234.76	725.9	48.392	116.99	695.57	44.526	197.32	484.35	985.64	-107.71	693.65	791.68	-363.3	541.94	89.43	117.49	764.08	39.518	134.14	593.83	113.28	172.61	678.28	719.32	-214.76	624.67	1567	-88.444	464.58	982.99	25.488	699.13	300.43	192.12	720.98	288.83	133.85	766.06	362.59	137.02	517	1089.2	281.19	686.47	211.38	132.54	630.31	117.04	94.491	610.29	254.65	-112.34	673.12	26.224	-122.62	699.7	837.72	-308.06	578.13	848.37	261.73	486.29	1077.7	193.7	555.81	69.937	-112.83	565.23	74.648	-28.04	499.38	1089.6	-23.333	498.88	30.731	-74.06	572.72	1031	-210.45
789	3.945	568.68	788.68	303.79	780.98	1577	-59.392	779.88	1572.8	38.716	537.55	849.35	322.36	689.67	36.164	-31.883	635.53	1383.5	155.87	645.92	559.42	-159.57	711.75	970.42	176.86	621.75	335.41	-44.036	579.4	1249.4	246.62	569.82	953.48	295.29	661.46	1357.2	-201.16	609.14	488.57	-148.83	643.79	1209.6	-277	607.99	250.73	-49.603	602.16	165.53	-52.723	733.56	31.079	-33.828	756.53	668.87	209.34	783.74	1222.9	-1.2352	662.55	640.98	-186.74	609.38	1572.4	45.699	711.43	641.16	-152.48	593.61	1065.8	-311.46	699.54	652.92	220.85	738.59	482.39	204.03	721.93	1340.3	-18.861	726.73	956.87	-179.89	722.15	569.05	210.51	658.61	832.81	-363.49	664.71	951.26	-335	499.48	1322	73.097	562.8	1419.4	-19.077	686.56	736.1	234.56	743.58	47.928	118.38	713.1	43.679	198.61	488.23	985.29	-107.65	703.18	792.57	-363.38	558.47	83.952	118.24	781.89	40.188	135.67	609.63	109.4	173.33	682.91	718.76	-214.23	629.04	1566.5	-88.557	468.48	982.71	25.483	709.91	299.46	191.9	731.9	288.28	133.7	774.88	363.2	136.47	520.53	1088.8	280.82	699.56	209.9	132.75	646.14	113.81	95.266	610.82	254.61	-112.4	673.15	26.194	-122.69	708.18	838.58	-308.01	581.6	847.9	261.83	489.93	1077.4	193.27	555.88	69.978	-112.8	565.36	74.668	-28.025	503.33	1089.3	-23.523	498.91	30.813	-73.995	578.64	1030.4	-211.08
790	3.95	572.08	788.36	303.97	785.32	1576.5	-59.336	784.13	1572.3	38.782	540.77	848.96	322.15	689.7	36.186	-31.93	639.7	1382.9	155.79	647.91	559.27	-159.54	716.04	970.18	176.93	622.61	335.3	-44.033	583.27	1248.8	246.41	573.16	953.06	295.22	666.3	1356.7	-201.07	610.56	488.56	-148.81	648.9	1209.3	-277.29	608.66	250.66	-49.64	602.52	165.46	-52.748	733.66	31.032	-33.891	761.73	668.94	208.8	787.81	1222.1	-0.67451	665.81	640.66	-186.48	613.62	1571.9	45.605	714.39	640.19	-151.76	599.46	1065.4	-311.98	704.87	652.72	220.56	744.69	482.14	203.3	726.2	1339.6	-18.733	730.49	956.19	-180.04	727.81	568.93	209.92	667.63	833.22	-363.77	672.06	951.68	-335.31	503.64	1321.7	72.759	567.18	1419	-19.356	691.49	735.83	234.38	761.31	47.656	119.75	730.74	43.012	199.9	492.09	984.92	-107.52	712.67	793.47	-363.4	575.21	78.633	119.09	799.74	41.072	137.16	625.61	105.65	174.13	687.41	718.21	-213.74	633.41	1566	-88.638	472.39	982.37	25.539	720.67	298.53	191.66	742.79	287.78	133.54	783.59	363.83	135.88	524.08	1088.4	280.49	712.68	208.52	132.99	662.08	110.72	96.086	611.42	254.56	-112.44	673.19	26.16	-122.77	716.61	839.44	-307.91	585.12	847.39	261.94	493.58	1077	192.89	555.96	70.025	-112.77	565.48	74.684	-28.032	507.28	1089	-23.664	498.93	30.907	-73.939	584.57	1029.7	-211.69
791	3.955	575.54	788.02	304.18	789.66	1576	-59.253	788.38	1571.8	38.873	544.05	848.54	321.98	689.73	36.207	-31.974	643.88	1382.4	155.75	649.96	559.13	-159.52	720.35	969.88	176.99	623.53	335.17	-44.004	587.18	1248.2	246.24	576.56	952.6	295.19	671.15	1356.3	-200.96	612.09	488.56	-148.77	654.07	1209	-277.56	609.36	250.6	-49.658	602.89	165.38	-52.753	733.77	30.984	-33.948	766.85	668.94	208.24	791.87	1221.2	-0.1251	669.02	640.35	-186.26	617.87	1571.4	45.544	717.36	639.27	-151.15	605.31	1064.9	-312.5	710.1	652.47	220.27	750.62	481.82	202.57	730.46	1339	-18.57	734.24	955.54	-180.19	733.32	568.75	209.31	676.62	833.63	-363.99	679.39	952.08	-335.58	507.8	1321.4	72.466	571.58	1418.7	-19.6	696.38	735.53	234.22	779.1	47.596	121.06	748.47	42.544	201.16	495.93	984.52	-107.33	722.1	794.37	-363.35	592.14	73.498	120.03	817.6	42.191	138.57	641.76	102.06	174.97	691.75	717.69	-213.3	637.79	1565.5	-88.686	476.3	981.98	25.661	731.42	297.66	191.42	753.63	287.33	133.37	792.18	364.48	135.27	527.66	1087.9	280.21	725.82	207.24	133.26	678.13	107.8	96.94	612.09	254.51	-112.44	673.22	26.123	-122.83	724.99	840.29	-307.75	588.69	846.86	262.08	497.25	1076.6	192.56	556.05	70.078	-112.76	565.61	74.697	-28.062	511.24	1088.7	-23.756	498.94	31.015	-73.895	590.49	1029	-212.28
792	3.96	579.07	787.65	304.43	794.01	1575.5	-59.141	792.64	1571.3	38.99	547.39	848.07	321.83	689.77	36.227	-32.015	648.05	1381.8	155.76	652.08	558.99	-159.51	724.67	969.52	177.06	624.51	335.03	-43.954	591.11	1247.6	246.12	580	952.11	295.18	676	1355.8	-200.81	613.73	488.55	-148.71	659.29	1208.7	-277.8	610.09	250.54	-49.658	603.27	165.31	-52.741	733.87	30.932	-33.999	771.88	668.86	207.68	795.92	1220.4	0.40744	672.19	640.06	-186.08	622.12	1570.8	45.516	720.33	638.39	-150.66	611.16	1064.4	-312.99	715.24	652.18	219.98	756.37	481.46	201.83	734.73	1338.3	-18.373	737.98	954.92	-180.33	738.68	568.51	208.68	685.55	834.05	-364.16	686.69	952.47	-335.83	511.97	1321.1	72.224	576	1418.3	-19.801	701.22	735.18	234.08	796.9	47.77	122.3	766.29	42.295	202.37	499.76	984.1	-107.06	731.47	795.29	-363.25	609.24	68.572	121.05	835.46	43.564	139.88	658.07	98.652	175.87	695.94	717.19	-212.91	642.17	1564.9	-88.699	480.22	981.53	25.852	742.13	296.85	191.17	764.42	286.94	133.2	800.64	365.16	134.63	531.28	1087.4	279.98	738.97	206.09	133.53	694.25	105.07	97.817	612.83	254.44	-112.42	673.26	26.083	-122.9	733.32	841.14	-307.53	592.31	846.3	262.24	500.94	1076.1	192.28	556.15	70.14	-112.76	565.74	74.713	-28.112	515.19	1088.4	-23.797	498.97	31.135	-73.862	596.41	1028.3	-212.85
